<svg id="SvgjsSvg1186" width="150" height="150" xmlns="http://www.w3.org/2000/svg" version="1.1" xmlns:xlink="http://www.w3.org/1999/xlink" xmlns:svgjs="http://svgjs.com/svgjs"><defs id="SvgjsDefs1187"></defs><g id="SvgjsG1188"><svg xmlns="http://www.w3.org/2000/svg" xmlns:svgjs="http://svgjs.com/svgjs" xmlns:xlink="http://www.w3.org/1999/xlink" viewBox="0 0 550 550" width="288" height="288"><svg xmlns="http://www.w3.org/2000/svg" enable-background="new 0 0 1920 1080" viewBox="0 0 1920 1080" width="288" height="288"><ellipse cx="928.7" cy="1020.2" fill="#a08fb4" class="color2a94f4 svgShape color5fe4d4" opacity=".1" rx="605.3" ry="59.8"></ellipse><path fill="#9582ab" d="M900 98.7h541.9v920.6H900z" class="colord3d3d3 svgShape colorad59d4"></path><path fill="#f2eff5" d="M802.5 52h569.4v967.2H802.5z" class="colorf2f2f2 svgShape"></path><path fill="#9480ab" d="M705.8 8.3H1301v1011H705.8z" class="colorffbe55 svgShape colord8a353"></path><path fill="#ffffff" d="M705.8 8.3H1301v1011H705.8z" class="colorfff svgShape" opacity=".33"></path><path fill="#ffffff" d="M1212.4 549.7H794.3V131.6h418.1v418.1zM823 521.1h360.7V160.3H823v360.8z" class="colorfff svgShape"></path><path fill="#3d314a" d="M777.6 322c16.9 24.1 33.8 48.2 50.7 72.4 26.8 38.3 53.6 76.5 80.5 114.8 6.3 8.9 12.5 17.8 18.8 26.8 3.4 4.8 17.2 20.8 23.2 10.8 17.9-30.4 36.8-60.2 55.9-89.8 42.5-65.8 87-130.4 134.5-192.7 28.9-37.9 59-74.9 91.2-110 13-14.2-22.2-61.3-30.8-52-58.1 63.3-110 132-159.2 202.3C1005 358 969.2 412.5 935 468l-7.8 12.6c-3.9 6.4-2.4 10-9.4 0-9.9-14.1-19.8-28.2-29.7-42.4-26.8-38.3-53.6-76.5-80.5-114.8-6.3-8.9-12.5-17.8-18.8-26.8-3.2-4.6-17.8-21.2-23.2-10.8-5.2 10.5 6.6 28.5 12 36.2z" class="color0b4870 svgShape color370b70"></path><path fill="#ffffff" d="M794.3 676.8h418.1v30.9H794.3zM794.3 744.6h418.1v30.9H794.3zM794.3 819.7h282.5v30.9H794.3z" class="colorfff svgShape"></path><path fill="#3d314a" d="M580.2 260.9s21.8-46.4 11.8-67.5-26.6-25.8-46.1-22.3-26.3-6.9-29.2-4-5.1 12.6-2.6 12.6c2.6 0-8.3 8-6.6 13.7 1.7 5.7-13.5 63.7 27.9 70.6s44.8-3.1 44.8-3.1z" class="color0b4870 svgShape color370b70"></path><path fill="#d6cedf" d="M462.8 992h26.8l3.3-30.9h-26.7z" class="colorfcd2b1 svgShape colorfcdeb1"></path><path fill="#3d314a" d="M462.8 980.2s-24 19.5-41.4 17.7c-17.4-1.7-18.4 13.2-18.7 20.9h55.5s11.2-10.6 18.4 0H493v-38.6c-.1 0-15.4 6.9-30.2 0z" class="color0b4870 svgShape color370b70"></path><path fill="#d6cedf" d="M624.8 992h-26.7l-3.4-30.9h26.8z" class="colorfcd2b1 svgShape colorfcdeb1"></path><path fill="#917ca8" d="m472 543.2-13.2 422.7h40.1s14.9-294.7 44-311.9c32.2-19 49 311.9 49 311.9h34s-8.8-409.5-12.2-422.7c-1.1-4.9-119.3-53-141.7 0z" class="color0e538c svgShape color8526fe"></path><path fill="#9480ab" d="M492 302.6s39-36 100-6.6c14.9 7.2 21.9 235.8 21.9 247.3 0 0-50.2 29.8-141.8 0-.1-.1 16.1-238.1 19.9-240.7z" class="colorffbe55 svgShape colord8a353"></path><path fill="#d6cedf" d="M636.7 349.6s58.2 61.9 71.1 58.8c20-4.8 79.8-21 79.8-21l6.5 12.2s-62.2 41-88.8 43.5c-26.6 2.5-91.6-69-91.6-69l23-24.5zM475.7 371.4s-44.8 51.9-45.4 66.8c-.6 14.9 37.3 75.2 37.3 75.2l-8.7 15.7s-54.3-59.6-63.1-81.2 55.6-98.7 55.6-98.7l24.3 22.2z" class="colorfcd2b1 svgShape colorfcdeb1"></path><path fill="#9480ab" d="m478.5 381.9-34.1-35.7s44-56 73.2-54.8c22.4.9 6.1 63.2-39.1 90.5zM607.1 380.8l34.5-35.3s-30-51.9-59.2-51c-22.3.6-20.1 58.4 24.7 86.3z" class="colorffbe55 svgShape colord8a353"></path><path fill="#d6cedf" d="M522.9 241.4v51.7c0 10.2 8.3 18.5 18.5 18.5s18.5-8.3 18.5-18.5v-54.7l-37 3z" class="colorfcd2b1 svgShape colorfcdeb1"></path><path fill="#e4dfea" d="M584.8 193.4s20.6 67.5-8 77.4-51.9-10.7-52.3-25.9c0 0-20.3-14.9-4.2-26.3 5.3-3.8 10.3 3.8 10.3 9.5s3.8 1.5 3.8-1.1v-25.6s44.7 19 50.4-8z" class="colorffe3ca svgShape colorffeaca"></path><path fill="#3d314a" d="M624.9 980.2s24 19.5 41.4 17.7c17.4-1.7 18.4 13.2 18.7 20.9h-55.5s-11.2-10.6-18.4 0h-16.4v-38.6s15.3 6.9 30.2 0z" class="color0b4870 svgShape color370b70"></path><path fill="#d6cedf" d="M467.5 513.4s12 8.1 8.1 23.1c-3.9 15.1-14.9 29.5-25.6 28.8-3.7-.3-6.9-1.4-9.7-2.8-6.1-3-9-10.3-6-16.4.9-1.9 2.1-2.8 3.6-.9 4.1 5.3 22-5.9 20.9-16.2-1.1-10.2-10.5-28.6 8.7-15.6z" class="colorfcd2b1 svgShape colorfcdeb1"></path><path fill="#9480ab" d="M713.4 243.5h80.7v698.3h-80.7z" class="colorffbe55 svgShape colord8a353"></path><path fill="#d6cedf" d="m713.4 243.5 40.3-81.8 40.3 81.8s-15.6 8-40.3 8c-24.7 0-40.3-8-40.3-8z" class="colorfcd2b1 svgShape colorfcdeb1"></path><path fill="#3d314a" d="m736.9 195.8 16.8-34.1 16.8 34.1z" class="color0b4870 svgShape color370b70"></path><path fill="#9784ad" d="M780.3 1019.2h-53.1c-7.6 0-13.8-6.2-13.8-13.8v-65.2H794v65.2c0 7.6-6.1 13.8-13.7 13.8z" class="colorec4561 svgShape coloreca945"></path><path fill="#9582ab" d="M713.4 911.2h80.7v49.2h-80.7z" class="colord3d3d3 svgShape colorad59d4"></path><path fill="#e4dfea" d="M794 363.9s10.9 38.1-6.3 37.6c-17.1-.6-25.1-25 6.3-37.6z" class="colorffe3ca svgShape colorffeaca"></path></svg></svg></g></svg>